# xmcd
# Copyright (C) 1995-1998 Ti Kan
#
# Track frame offsets:
#       150
#       23720
#       43751
#       73923
#       96390
#       118498
#       147510
#       161258
#       181787
#
# Disc length: 2692 seconds
#
# Revision: 0
# Processed by: cddbd v1.5.2PL0 Copyright (c) Steve Scherf et al.
# Submitted via: CD-Import v1.0
#
DISCID=810a8209
DTITLE=Oasis - Dig Out Your Soul - Remixes
DYEAR=2009
DGENRE=
TTITLE0=Falling Down (Gibbs Mix)
TTITLE1=The Shock Of The Lightning (Primal Scream Remix)
TTITLE2=The Shock Of The Lightning (Jagz Kooner Remix)
TTITLE3=The Turning (Alternate Version # 4)
TTITLE4=The Turning (Jagz Kooner Remix)
TTITLE5=To Be Where There's Life (Richard Fearless Remix)
TTITLE6=Waiting For The Rapture (Alternate Version # 2)
TTITLE7=Falling Down (Pordigy Remix)
TTITLE8=Falling Down (Chemical Brothers Remix)
EXTD=
EXTT0=
EXTT1=
EXTT2=
EXTT3=
EXTT4=
EXTT5=
EXTT6=
EXTT7=
EXTT8=
PLAYORDER=
